<?xml version="1.0" encoding="utf-8"?>
<!-- Generator: Adobe Illustrator 16.0.0, SVG Export Plug-In . SVG Version: 6.00 Build 0)  -->
<!DOCTYPE svg PUBLIC "-//W3C//DTD SVG 1.1//EN" "http://www.w3.org/Graphics/SVG/1.1/DTD/svg11.dtd">
<svg version="1.1" id="Layer_1" xmlns="http://www.w3.org/2000/svg" xmlns:xlink="http://www.w3.org/1999/xlink" x="0px" y="0px"
	 width="800px" height="600px" viewBox="0 0 800 600" enable-background="new 0 0 800 600" xml:space="preserve">
<path fill="#058B38" d="M600,281.157c0,55.214-19.502,102.327-58.51,141.332C502.48,461.495,455.373,481,400.156,481
	s-102.38-19.504-141.489-58.51C219.556,383.483,200,336.37,200,281.156c0-55.426,19.556-102.64,58.67-141.646
	C297.777,100.502,344.94,81,400.16,81c55.216,0,102.323,19.502,141.333,58.511C580.498,178.518,600,225.73,600,281.157z
	 M571.14,281.157c0-47.268-16.68-87.582-50.042-120.942c-33.362-33.359-73.673-50.04-120.939-50.04
	c-47.268,0-87.583,16.681-120.943,50.04c-33.36,33.358-50.035,73.676-50.035,120.942c0,47.057,16.678,87.271,50.037,120.627
	c33.36,33.36,73.674,50.04,120.942,50.04c47.268,0,87.574-16.68,120.939-50.04C554.459,368.427,571.139,328.214,571.14,281.157
	L571.14,281.157z M348.707,239.743c0,6.902-2.457,12.864-7.373,17.884c-4.915,5.021-10.931,7.53-18.04,7.53
	c-6.9,0-12.862-2.51-17.882-7.53c-5.021-5.02-7.53-10.979-7.53-17.884c0-7.11,2.51-13.124,7.53-18.038
	c5.02-4.916,10.979-7.374,17.883-7.374c7.109,0,13.124,2.46,18.04,7.377c4.915,4.917,7.372,10.931,7.372,18.038V239.743z
	 M307.922,345.47l19.452-11.293c16.522,30.114,40.786,45.173,72.786,45.173s56.156-15.055,72.468-45.173l19.768,11.293
	c-10.458,19.867-23.372,35.033-38.744,45.487c-15.375,10.458-33.202,15.688-53.489,15.688c-20.5,0-38.38-5.23-53.648-15.688
	C331.244,380.504,318.381,365.338,307.922,345.47z M502.118,239.743c0,6.902-2.457,12.864-7.372,17.884
	c-4.913,5.021-10.931,7.53-18.037,7.53c-6.908,0-12.864-2.51-17.888-7.53c-5.02-5.02-7.526-10.979-7.526-17.884
	c0-7.11,2.51-13.124,7.526-18.038c5.022-4.916,10.98-7.374,17.885-7.374c7.106,0,13.123,2.46,18.036,7.377
	c4.915,4.917,7.371,10.931,7.371,18.038L502.118,239.743z"/>
</svg>
